<?xml version="1.0" encoding="utf-8"?>
<!-- Generator: Adobe Illustrator 22.1.0, SVG Export Plug-In . SVG Version: 6.00 Build 0)  -->
<svg version="1.1" id="Layer_1" xmlns="http://www.w3.org/2000/svg" xmlns:xlink="http://www.w3.org/1999/xlink" x="0px" y="0px"
	 viewBox="0 0 2532 724" style="enable-background:new 0 0 2532 724;" xml:space="preserve">
<g>
	<path d="M750.1,273.9L750.1,273.9c12.1,0,21.9,9.8,21.9,21.9v208c0,12.1-9.8,21.9-21.9,21.9l0,0c-12.1,0-21.9-9.8-21.9-21.9v-208
		C728.2,283.7,738,273.9,750.1,273.9z"/>
	<path d="M959.3,339.7L959.3,339.7c12.1,0,21.9,9.8,21.9,21.9v71c0,25.8-9.1,47.7-27.3,65.8c-18.1,18.2-39.9,27.3-65.6,27.3
		c-25.8,0-47.7-9.1-65.8-27.3c-18.2-18.1-27.3-40-27.3-65.8v-71c0-12.1,9.8-21.9,21.9-21.9l0,0c12.1,0,21.9,9.8,21.9,21.9v71
		c0,13.6,4.8,25.3,14.4,35c9.7,9.6,21.4,14.4,35,14.4c13.4,0,25-4.8,34.7-14.4c9.6-9.7,14.4-21.4,14.4-35v-71
		C937.4,349.5,947.2,339.7,959.3,339.7z"/>
	<path d="M1026.2,525.7L1026.2,525.7c-12.1,0-21.9-9.8-21.9-21.9v-71.2c0-25.6,9.1-47.5,27.3-65.6c18.1-18.2,40-27.3,65.8-27.3
		c25.6,0,47.5,9.1,65.6,27.3c18.2,18.1,27.3,39.9,27.3,65.6v71.2c0,12.1-9.8,21.9-21.9,21.9l0,0c-12.1,0-21.9-9.8-21.9-21.9v-71.2
		c0-13.4-4.8-25-14.4-34.7c-9.7-9.6-21.3-14.4-34.7-14.4c-13.6,0-25.3,4.8-35,14.4c-9.6,9.7-14.4,21.3-14.4,34.7v71.2
		C1048.1,515.9,1038.3,525.7,1026.2,525.7z"/>
	<path d="M1213.7,427.3c1.4-24.4,11-45.1,29-62.1c17.9-17,39.2-25.5,63.9-25.5h27.2c12.1,0,21.9,9.8,21.9,21.9v0
		c0,12.1-9.8,21.9-21.9,21.9h-27.2c-13.6,0-25.3,4.8-35,14.4c-9.6,9.7-14.4,21.3-14.4,34.7c0,13.6,4.8,25.3,14.4,35
		c9.7,9.6,21.4,14.4,35,14.4h27.2c12.1,0,21.9,9.8,21.9,21.9v0c0,12.1-9.8,21.9-21.9,21.9h-27.2c-24.7,0-46-8.5-63.9-25.5
		c-17.9-17-27.6-37.7-29-62.1h-0.2v-10.9H1213.7z"/>
	<path d="M1521.2,432.6c0-13.4-4.8-25-14.4-34.7c-9.7-9.6-21.3-14.4-34.7-14.4c-13.6,0-25.3,4.8-35,14.4
		c-9.6,9.7-14.4,21.3-14.4,34.7v71.2c0,12.1-9.8,21.9-21.9,21.9l0,0c-12.1,0-21.9-9.8-21.9-21.9v-208c0-12.1,9.8-21.9,21.9-21.9l0,0
		c12.1,0,21.9,9.8,21.9,21.9v58c15-9.4,31.4-14.1,49.3-14.1c25.6,0,47.5,9.1,65.6,27.3c18.2,18.1,27.3,39.9,27.3,65.6v71.2
		c0,12.1-9.8,21.9-21.9,21.9l0,0c-12.1,0-21.9-9.8-21.9-21.9V432.6z"/>
	<path d="M1610,657.1L1610,657.1c-12.1,0-21.9-9.8-21.9-21.9v-197h0.2c-0.2-2-0.2-3.8-0.2-5.3c0-25.8,9.1-47.7,27.3-65.8
		c18.1-18.2,40-27.3,65.8-27.3c25.6,0,47.5,9.1,65.6,27.3c18.2,18.1,27.3,40,27.3,65.8c0,25.6-9.1,47.5-27.3,65.6
		c-18.1,18.2-39.9,27.3-65.6,27.3c-17.9,0-34.4-4.7-49.3-14.1v123.6C1631.9,647.3,1622.1,657.1,1610,657.1z M1681.2,383.5
		c-13.6,0-25.3,4.8-35,14.4c-9.6,9.7-14.4,21.4-14.4,35c0,13.4,4.8,25,14.4,34.7c9.7,9.6,21.4,14.4,35,14.4c13.4,0,25-4.8,34.7-14.4
		c9.6-9.7,14.4-21.3,14.4-34.7c0-13.6-4.8-25.3-14.4-35C1706.3,388.3,1694.7,383.5,1681.2,383.5z"/>
	<path d="M1890.4,525.7c-25.8,0-47.7-9.1-65.8-27.3c-18.2-18.1-27.3-40-27.3-65.8c0-25.6,9.1-47.5,27.3-65.6
		c18.1-18.2,40-27.3,65.8-27.3c25.6,0,47.5,9.1,65.6,27.3c18.2,18.1,27.3,39.9,27.3,65.6c0,25.8-9.1,47.7-27.3,65.8
		C1937.9,516.6,1916.1,525.7,1890.4,525.7z M1890.4,383.5c-13.6,0-25.3,4.8-35,14.4c-9.6,9.7-14.4,21.3-14.4,34.7
		c0,13.6,4.8,25.3,14.4,35c9.7,9.6,21.4,14.4,35,14.4c13.4,0,25-4.8,34.7-14.4c9.6-9.7,14.4-21.4,14.4-35c0-13.4-4.8-25-14.4-34.7
		C1915.4,388.3,1903.9,383.5,1890.4,383.5z"/>
	<path d="M2099.6,525.7c-25.8,0-47.7-9.1-65.8-27.3c-18.2-18.1-27.3-40-27.3-65.8c0-25.6,9.1-47.5,27.3-65.6
		c18.1-18.2,40-27.3,65.8-27.3c25.6,0,47.5,9.1,65.6,27.3c18.2,18.1,27.3,39.9,27.3,65.6c0,25.8-9.1,47.7-27.3,65.8
		C2147.1,516.6,2125.2,525.7,2099.6,525.7z M2099.6,383.5c-13.6,0-25.3,4.8-35,14.4c-9.6,9.7-14.4,21.3-14.4,34.7
		c0,13.6,4.8,25.3,14.4,35c9.7,9.6,21.4,14.4,35,14.4c13.4,0,25-4.8,34.7-14.4c9.6-9.7,14.4-21.4,14.4-35c0-13.4-4.8-25-14.4-34.7
		C2124.6,388.3,2113,383.5,2099.6,383.5z"/>
	<path d="M2237.6,273.9L2237.6,273.9c12.1,0,21.9,9.8,21.9,21.9v208c0,12.1-9.8,21.9-21.9,21.9l0,0c-12.1,0-21.9-9.8-21.9-21.9v-208
		C2215.7,283.7,2225.5,273.9,2237.6,273.9z"/>
	<path d="M2373,454.6h-32.9c-15.9,0-29.4-5.6-40.5-16.9c-11.3-11.3-16.9-24.8-16.9-40.5c0-15.9,5.6-29.4,16.9-40.5
		c11.1-11.3,24.6-16.9,40.5-16.9h62.9c12.1,0,21.9,9.8,21.9,21.9v0c0,12.1-9.8,21.9-21.9,21.9h-62.9c-3.7,0-7,1.3-9.7,3.9
		c-2.6,2.6-3.9,5.9-3.9,9.7c0,3.7,1.3,7,3.9,9.7c2.8,2.6,6,3.9,9.7,3.9h32.9c15.8,0,29.3,5.6,40.5,16.9
		c11.3,11.1,16.9,24.6,16.9,40.5c0,15.9-5.6,29.4-16.9,40.5c-11.3,11.3-24.8,16.9-40.5,16.9h-68.5c-12.1,0-21.9-9.8-21.9-21.9v0
		c0-12.1,9.8-21.9,21.9-21.9h68.5c3.7,0,6.9-1.3,9.5-3.9c2.8-2.8,4.2-6,4.2-9.7"/>
</g>
<g>
	<path d="M668.7,458.5c-0.8-8.1-32.5-9.5-38.7-0.3c0.7,9.2,1.8,15.5,3.3,16.4c6.7,4.2,33.6-19.3,35.8-14.2v-0.6
		C669,459.4,668.8,459,668.7,458.5z"/>
	<path d="M668.7,366.6c0.1-0.6,0.4,97.6,0.4-1.8c0-16,0-32,0-48c-0.1-0.9-0.4-1.8-0.4-2.8c0-11.9-0.9-23.8-2.1-35.7
		c-1.8-17.5-4.3-34.9-7.4-52.2c-6.8-38.1-16-75.6-27.1-112.7c-3.1-10.5-6.6-20.9-9.9-31.3c-1.9-5.9-5.7-10.2-11.5-12.4
		c-1.6-0.6-3.4-1-5.2-1c-11.2-0.2-22.5-0.2-33.7-0.2c-39.6-0.1-79.2-0.3-118.7-0.4c-16.6-0.1-33.1-0.1-49.7-0.2
		c-30.3-0.1-60.6-0.2-90.9-0.3c-13.4,0-26.9-0.1-40.3-0.1c-1.6,0-3.2-0.2-4.8-0.3c-7.8,0-15.7,0-23.5,0c-0.1,0.1-0.2,0.3-0.4,0.3
		c-5.3,0.8-9.1,3.9-12.7,7.6c-29.1,30.2-49.8,65.4-62.5,105.2c-0.5,1.7-1.1,3.3-1.7,5v4.8c0.3,0.6,0.7,1.2,0.9,1.9
		c2.7,9.4,10.1,15.2,20,15.3c7.7,0.1,15.4,0,23,0c0.9,0,1.7,0,3,0c-0.4,1.2-0.7,2.1-1.1,3c-4.8,11.9-9.1,23.9-13,36.1
		c-6.8,21.6-12,43.6-15.7,65.9c-2.9,17.6-5,35.3-6,53.1c-0.4,7.4-0.7,14.9-0.7,22.3c-0.1,36.4,0,72.8-0.1,109.2
		c0,13,2.2,25.5,8.1,37.1c12.9,25.4,33.9,40.4,62.8,44.7c0.8,0.1,1.5,0.1,2.3,0.1c0.6,0,1.2,0.3,1.9,0.4h316.3
		c0.3-0.1,0.6-0.3,0.9-0.3c4.9-0.7,9.1-2.9,12.8-6.1c11.6-10,23.3-20,35-29.9c7.2-6.2,14.4-12.4,21.7-18.5
		c8.2-6.9,15.3-14.8,20.5-24.2c5.1-9,8.1-18.7,9.3-29c0.2-1.6,0.1-3.2,0.2-4.8c0.1-0.8,0.3-1.5,0.4-2.3v-3.7
		c-2.3-5.1-29.1,18.4-35.8,14.2c-1.5-1-2.6-7.2-3.3-16.4c-0.6,1-1,2-1,3.2c-0.1,3.6-0.4,7.2-1.4,10.7c-2,7.4-5.8,13.7-11.6,18.7
		c-8.2,7.2-16.6,14.3-24.9,21.4c-0.5,0.4-1,0.7-1.9,1.3c0-1.2-0.1-2-0.1-2.9c0-19.2,0-38.4,0.1-57.6c0-11.5-0.1-23,0-34.6
		c0.2-13.6,0.9-27.2,2.1-40.7c2.5-28.3,7.2-56.3,13.6-84c4.1-18,9.3-35.7,14.7-53.4c0.2-0.5,0.4-1,0.7-1.8c0.7,0.9,0.7,1.8,0.8,2.6
		c1.8,12.5,3.6,24.9,5.2,37.4c1.9,14.6,2.7,29.3,2.7,44.1c0,13.3,0,26.6,0.1,39.9c0,5.8-1.3,65.9,1,95.6c6.2-9.3,37.9-7.8,38.7,0.3
		c0,0.4,0.3,0.9,0.4,1.3v0.6C669.4,460.9,668.5,367.4,668.7,366.6z M481.8,107.2c24.1,0,48.1,0,72.2,0c0.5,0,1.1,0.1,2.1,0.1
		c-6.2,9.6-11.7,19.2-16.4,29.2c-4.8,10-9.3,20.2-14,30.4c-28.7,0-57.4,0-86.7,0c0,0,0,0,0,0c0,0,0,0,0,0c0,0,0,0,0,0.1
		c0,0,0,0,0-0.1c-31.9,0-190.4,0-222.3,0c0.2-0.7,0.3-1.3,0.6-1.9c8.7-18.8,19.7-36.2,33.3-51.9c1.2-1.4,2.4-2.8,3.6-4.2
		c1-1.3,2.3-1.9,4-1.8c0.3,0,0.6,0,1,0c27.1,0,54.2,0,81.3,0 M590.7,172.3c-1.4,25.4-7.3,49.9-14.8,74.1
		c-7.1,22.9-12.4,46.3-16.7,69.9c-2.7,14.6-4.9,29.2-6.5,43.9c-2.1,19.4-3.6,38.9-3.6,58.4c0,37.9,0,75.8,0,113.8c0,2.1,0,4.3,0,6.6
		c-1.2,0.1-2,0.1-2.9,0.1c-77.8,0-155.7,0-233.5,0c-18.5,0-37-0.2-55.4,0c-18.2,0.2-36.5-13-39.6-34.2c-0.3-2.2-0.4-4.5-0.5-6.7
		c0-30.7-0.1-61.4-0.1-92.2c0-9.8,0.1-19.5,0.4-29.3c0.3-11.8,1.4-23.5,2.8-35.1c2.7-22.8,7-45.3,13.1-67.5
		c5.6-20.5,12.7-40.4,21.3-59.8c0.7-1.6,1.4-3.2,2-4.9c0.6-1.5,1.7-2.2,3.3-2.2c12.5,0,25,0,37.4,0.1l124-0.1c1.1,0,2.2,0,3.2,0
		c37.2,0,74.4,0,111.6,0c2.4,0,4.8-0.1,7.2-0.6c6.7-1.3,11.4-5.3,14.1-11.5c2.8-6.5,5.6-13.1,8.5-19.6c5.6-13.1,11.5-26,18.8-38.3
		c1.1-1.8,2.2-3.6,3.3-5.3c0.4-0.6,0.9-1.2,1.8-2.3c0.2,1.7,0.5,2.8,0.6,4C591.3,146.5,591.4,159.4,590.7,172.3z"/>
	<path d="M386.9,220.7c0.6,1.2,1.1,1.9,1.5,2.7c24.4,45.6,48.2,90,72.6,135.5c0.9,1.7,0.9,2.9,0,4.6
		c-24.3,46.1-48.6,92.2-72.8,138.4c-0.4,0.7-0.8,1.3-1.3,2.2c-0.6-0.8-1.1-1.4-1.5-2.1c-3.3-5-6.6-10-9.9-15
		c-0.8-1.2-1.5-2.4-2.2-3.7c-19.6-37-39.1-74.1-58.6-111.2c-1.1-2.2-2.1-4.5-2.7-6.9c-1.3-5.1-0.1-10,2.4-14.6
		c7.8-14.4,15.6-28.8,23.4-43.3c11.7-21.8,23.4-43.7,35.2-65.5c2.5-4.7,5.7-9,8.7-13.5C383.3,225.9,385,223.5,386.9,220.7z
		 M386,428.3c0.5-0.9,0.8-1.4,1.1-2c11.2-21.2,22.3-42.4,33.5-63.6c0.7-1.3,0.6-2.3-0.1-3.5c-11.3-20.7-22.5-41.5-33.7-62.2
		c-0.3-0.6-0.7-1.2-1.2-1.9c-0.4,0.8-0.8,1.3-1.1,1.9c-11.1,20.9-22.2,41.8-33.4,62.6c-0.7,1.3-0.7,2.2,0,3.5
		c11.2,21,22.4,42.1,33.5,63.1C385.1,426.8,385.5,427.4,386,428.3z"/>
</g>
</svg>
