<?xml version="1.0" encoding="utf-8"?>
<!-- Generator: Adobe Illustrator 22.1.0, SVG Export Plug-In . SVG Version: 6.00 Build 0)  -->
<svg version="1.1" id="Layer_1" xmlns="http://www.w3.org/2000/svg" xmlns:xlink="http://www.w3.org/1999/xlink" x="0px" y="0px"
	 viewBox="0 0 648 644" xml:space="preserve" fill="white">
<g>
	<path d="M572.7,458.5c-0.8-8.1-32.5-9.5-38.7-0.3c0.7,9.2,1.8,15.5,3.3,16.4c6.7,4.2,33.6-19.3,35.8-14.2v-0.6
		C573,459.4,572.8,459,572.7,458.5z"/>
	<path d="M572.7,366.6c0.1-0.6,0.4,97.6,0.4-1.8c0-16,0-32,0-48c-0.1-0.9-0.4-1.8-0.4-2.8c0-11.9-0.9-23.8-2.1-35.7
		c-1.8-17.5-4.3-34.9-7.4-52.2c-6.8-38.1-16-75.6-27.1-112.7c-3.1-10.5-6.6-20.9-9.9-31.3c-1.9-5.9-5.7-10.2-11.5-12.4
		c-1.6-0.6-3.4-1-5.2-1c-11.2-0.2-22.5-0.2-33.7-0.2c-39.6-0.1-79.2-0.3-118.7-0.4c-16.6-0.1-33.1-0.1-49.7-0.2
		c-30.3-0.1-60.6-0.2-90.9-0.3c-13.4,0-26.9-0.1-40.3-0.1c-1.6,0-3.2-0.2-4.8-0.3c-7.8,0-15.7,0-23.5,0c-0.1,0.1-0.2,0.3-0.4,0.3
		c-5.3,0.8-9.1,3.9-12.7,7.6c-29.1,30.2-49.8,65.4-62.5,105.2c-0.5,1.7-1.1,3.3-1.7,5v4.8c0.3,0.6,0.7,1.2,0.9,1.9
		c2.7,9.4,10.1,15.2,20,15.3c7.7,0.1,15.4,0,23,0c0.9,0,1.7,0,3,0c-0.4,1.2-0.7,2.1-1.1,3c-4.8,11.9-9.1,23.9-13,36.1
		c-6.8,21.6-12,43.6-15.7,65.9c-2.9,17.6-5,35.3-6,53.1c-0.4,7.4-0.7,14.9-0.7,22.3c-0.1,36.4,0,72.8-0.1,109.2
		c0,13,2.2,25.5,8.1,37.1c12.9,25.4,33.9,40.4,62.8,44.7c0.8,0.1,1.5,0.1,2.3,0.1c0.6,0,1.2,0.3,1.9,0.4h316.3
		c0.3-0.1,0.6-0.3,0.9-0.3c4.9-0.7,9.1-2.9,12.8-6.1c11.6-10,23.3-20,35-29.9c7.2-6.2,14.4-12.4,21.7-18.5
		c8.2-6.9,15.3-14.8,20.5-24.2c5.1-9,8.1-18.7,9.3-29c0.2-1.6,0.1-3.2,0.2-4.8c0.1-0.8,0.3-1.5,0.4-2.3v-3.7
		c-2.3-5.1-29.1,18.4-35.8,14.2c-1.5-1-2.6-7.2-3.3-16.4c-0.6,1-1,2-1,3.2c-0.1,3.6-0.4,7.2-1.4,10.7c-2,7.4-5.8,13.7-11.6,18.7
		c-8.2,7.2-16.6,14.3-24.9,21.4c-0.5,0.4-1,0.7-1.9,1.3c0-1.2-0.1-2-0.1-2.9c0-19.2,0-38.4,0.1-57.6c0-11.5-0.1-23,0-34.6
		c0.2-13.6,0.9-27.2,2.1-40.7c2.5-28.3,7.2-56.3,13.6-84c4.1-18,9.3-35.7,14.7-53.4c0.2-0.5,0.4-1,0.7-1.8c0.7,0.9,0.7,1.8,0.8,2.6
		c1.8,12.5,3.6,24.9,5.2,37.4c1.9,14.6,2.7,29.3,2.7,44.1c0,13.3,0,26.6,0.1,39.9c0,5.8-1.3,65.9,1,95.6c6.2-9.3,37.9-7.8,38.7,0.3
		c0,0.4,0.3,0.9,0.4,1.3v0.6C573.4,460.9,572.5,367.4,572.7,366.6z M385.8,107.2c24.1,0,48.1,0,72.2,0c0.5,0,1.1,0.1,2.1,0.1
		c-6.2,9.6-11.7,19.2-16.4,29.2c-4.8,10-9.3,20.2-14,30.4c-28.7,0-57.4,0-86.7,0c0,0,0,0,0,0c0,0,0,0,0,0c0,0,0,0,0,0.1
		c0,0,0,0,0-0.1c-31.9,0-190.4,0-222.3,0c0.2-0.7,0.3-1.3,0.6-1.9c8.7-18.8,19.7-36.2,33.3-51.9c1.2-1.4,2.4-2.8,3.6-4.2
		c1-1.3,2.3-1.9,4-1.8c0.3,0,0.6,0,1,0c27.1,0,54.2,0,81.3,0 M494.7,172.3c-1.4,25.4-7.3,49.9-14.8,74.1
		c-7.1,22.9-12.4,46.3-16.7,69.9c-2.7,14.6-4.9,29.2-6.5,43.9c-2.1,19.4-3.6,38.9-3.6,58.4c0,37.9,0,75.8,0,113.8c0,2.1,0,4.3,0,6.6
		c-1.2,0.1-2,0.1-2.9,0.1c-77.8,0-155.7,0-233.5,0c-18.5,0-37-0.2-55.4,0c-18.2,0.2-36.5-13-39.6-34.2c-0.3-2.2-0.4-4.5-0.5-6.7
		c0-30.7-0.1-61.4-0.1-92.2c0-9.8,0.1-19.5,0.4-29.3c0.3-11.8,1.4-23.5,2.8-35.1c2.7-22.8,7-45.3,13.1-67.5
		c5.6-20.5,12.7-40.4,21.3-59.8c0.7-1.6,1.4-3.2,2-4.9c0.6-1.5,1.7-2.2,3.3-2.2c12.5,0,25,0,37.4,0.1l124-0.1c1.1,0,2.2,0,3.2,0
		c37.2,0,74.4,0,111.6,0c2.4,0,4.8-0.1,7.2-0.6c6.7-1.3,11.4-5.3,14.1-11.5c2.8-6.5,5.6-13.1,8.5-19.6c5.6-13.1,11.5-26,18.8-38.3
		c1.1-1.8,2.2-3.6,3.3-5.3c0.4-0.6,0.9-1.2,1.8-2.3c0.2,1.7,0.5,2.8,0.6,4C495.3,146.5,495.4,159.4,494.7,172.3z"/>
	<path d="M290.9,220.7c0.6,1.2,1.1,1.9,1.5,2.7c24.4,45.6,48.2,90,72.6,135.5c0.9,1.7,0.9,2.9,0,4.6
		c-24.3,46.1-48.6,92.2-72.8,138.4c-0.4,0.7-0.8,1.3-1.3,2.2c-0.6-0.8-1.1-1.4-1.5-2.1c-3.3-5-6.6-10-9.9-15
		c-0.8-1.2-1.5-2.4-2.2-3.7c-19.6-37-39.1-74.1-58.6-111.2c-1.1-2.2-2.1-4.5-2.7-6.9c-1.3-5.1-0.1-10,2.4-14.6
		c7.8-14.4,15.6-28.8,23.4-43.3c11.7-21.8,23.4-43.7,35.2-65.5c2.5-4.7,5.7-9,8.7-13.5C287.3,225.9,289,223.5,290.9,220.7z
		 M290,428.3c0.5-0.9,0.8-1.4,1.1-2c11.2-21.2,22.3-42.4,33.5-63.6c0.7-1.3,0.6-2.3-0.1-3.5c-11.3-20.7-22.5-41.5-33.7-62.2
		c-0.3-0.6-0.7-1.2-1.2-1.9c-0.4,0.8-0.8,1.3-1.1,1.9c-11.1,20.9-22.2,41.8-33.4,62.6c-0.7,1.3-0.7,2.2,0,3.5
		c11.2,21,22.4,42.1,33.5,63.1C289.1,426.8,289.5,427.4,290,428.3z"/>
</g>
</svg>
